<svg width="21" height="20" viewBox="0 0 21 20" fill="none" xmlns="http://www.w3.org/2000/svg">
<path d="M10.0018 0C4.47911 0 0.00195312 4.47722 0.00195312 9.9999C0.00195312 15.5224 4.47904 20 10.0017 20C15.5243 20 20.0018 15.5224 20.0018 9.9999C20.0018 4.47722 15.5243 0 10.0018 0ZM13.774 13.8113C13.3748 14.2102 12.728 14.2102 12.329 13.8113L10.0536 11.5358L7.67454 13.9149C7.27548 14.3138 6.62862 14.3138 6.22976 13.9149C5.8305 13.5155 5.8305 12.8688 6.22976 12.4695L8.6086 10.0907L6.39369 7.87592C5.99476 7.47653 5.99476 6.82986 6.39369 6.43074C6.79275 6.03167 7.43975 6.03167 7.83888 6.43074L10.0537 8.64551L12.165 6.534C12.5641 6.13507 13.2113 6.13494 13.61 6.534C14.0093 6.9334 14.0093 7.58046 13.61 7.97919L11.4988 10.0906L13.7741 12.366C14.1731 12.7649 14.1733 13.4121 13.774 13.8113Z" fill="#CED7E1"/>
</svg>
