<svg width="27" height="37" viewBox="0 0 27 37" fill="none" xmlns="http://www.w3.org/2000/svg">
<g clip-path="url(#clip0_1_2977)">
<path d="M20.2113 0.539082C16.7925 -0.368573 13.1666 -0.132397 9.89747 1.21087C6.62834 2.55414 3.89932 4.92919 2.1349 7.96659C0.370482 11.004 -0.330415 14.5334 0.141236 18.0059C0.612886 21.4784 2.23064 24.6993 4.74286 27.1675L22.6292 9.46535C23.298 8.8029 23.7789 7.97788 24.0235 7.07319C24.2681 6.1685 24.2679 5.21601 24.0229 4.31142C23.7779 3.40684 23.2967 2.58202 22.6276 1.91984C21.9585 1.25767 21.1252 0.781466 20.2113 0.539082Z" fill="url(#paint0_linear_1_2977)"/>
<path d="M6.78997 36.4596C10.2108 37.3702 13.8398 37.1355 17.1119 35.792C20.384 34.4485 23.1154 32.0718 24.8809 29.0318C26.6463 25.9918 27.3467 22.4592 26.873 18.9842C26.3992 15.5092 24.7779 12.2868 22.2615 9.81885L4.37516 27.5333C3.70636 28.1956 3.22538 29.0204 2.98055 29.9249C2.73572 30.8294 2.73565 31.7817 2.98035 32.6862C3.22505 33.5908 3.70591 34.4156 4.37462 35.078C5.04333 35.7403 5.87634 36.2168 6.78997 36.4596Z" fill="url(#paint1_linear_1_2977)"/>
<path style="mix-blend-mode:multiply" d="M22.2615 9.81885L4.37516 27.5333C3.70636 28.1956 3.22538 29.0204 2.98055 29.9249C2.73572 30.8294 2.73565 31.7817 2.98035 32.6862C3.22505 33.5908 3.70591 34.4156 4.37462 35.078C5.04332 35.7403 5.87634 36.2168 6.78997 36.4596C8.70264 36.9645 10.6929 37.1164 12.6612 36.9076C4.81845 29.4388 22.2615 9.81885 22.2615 9.81885Z" fill="url(#paint2_linear_1_2977)"/>
<g style="mix-blend-mode:multiply">
<path style="mix-blend-mode:multiply" d="M6.46163 36.362C3.92283 28.5802 19.1712 12.9094 21.8619 10.2275L4.37541 27.5339C3.7271 28.1758 3.2549 28.9707 3.00348 29.8436C2.75206 30.7165 2.72972 31.6384 2.93858 32.5222C3.14743 33.406 3.58058 34.2224 4.19706 34.8943C4.81353 35.5662 5.59296 36.0714 6.46163 36.362Z" fill="url(#paint3_linear_1_2977)"/>
<path style="mix-blend-mode:multiply" d="M22.2031 9.88984C22.2217 9.86941 22.2414 9.84995 22.262 9.83154L22.2031 9.88984Z" fill="url(#paint4_linear_1_2977)"/>
</g>
<path style="mix-blend-mode:screen" d="M23.9419 7.36426L4.72266 27.1561L22.6307 9.46618C23.2289 8.87751 23.6781 8.15732 23.9419 7.36426Z" fill="url(#paint5_radial_1_2977)"/>
</g>
<defs>
<linearGradient id="paint0_linear_1_2977" x1="16.4108" y1="-16.6936" x2="10.5883" y2="20.6652" gradientUnits="userSpaceOnUse">
<stop stop-color="#0096D9"/>
<stop offset="1" stop-color="#00C198"/>
</linearGradient>
<linearGradient id="paint1_linear_1_2977" x1="9.13659" y1="13.6177" x2="18.5057" y2="32.4244" gradientUnits="userSpaceOnUse">
<stop stop-color="#002DD9"/>
<stop offset="1" stop-color="#00B2AB"/>
</linearGradient>
<linearGradient id="paint2_linear_1_2977" x1="23.8083" y1="-3.42481" x2="6.08374" y2="38.1709" gradientUnits="userSpaceOnUse">
<stop stop-color="#3482C0"/>
<stop offset="0.45" stop-color="#96BEDE"/>
<stop offset="0.83" stop-color="#E1EDF6"/>
<stop offset="1" stop-color="white"/>
</linearGradient>
<linearGradient id="paint3_linear_1_2977" x1="1361.37" y1="132.275" x2="-132.26" y2="2238.51" gradientUnits="userSpaceOnUse">
<stop stop-color="#3482C0"/>
<stop offset="0.45" stop-color="#96BEDE"/>
<stop offset="0.83" stop-color="#E1EDF6"/>
<stop offset="1" stop-color="white"/>
</linearGradient>
<linearGradient id="paint4_linear_1_2977" x1="25.6749" y1="3.26808" x2="10.5969" y2="32.7125" gradientUnits="userSpaceOnUse">
<stop stop-color="#569FA1"/>
<stop offset="0.36" stop-color="#97C4C5"/>
<stop offset="0.8" stop-color="#E2EEEF"/>
<stop offset="1" stop-color="white"/>
</linearGradient>
<radialGradient id="paint5_radial_1_2977" cx="0" cy="0" r="1" gradientUnits="userSpaceOnUse" gradientTransform="translate(21.5953 32.3818) scale(27.8184 27.5367)">
<stop stop-color="#FFFF00"/>
<stop offset="1"/>
</radialGradient>
<clipPath id="clip0_1_2977">
<rect width="27" height="37" fill="white"/>
</clipPath>
</defs>
</svg>
